<svg xmlns="http://www.w3.org/2000/svg" xmlns:svg="http://www.w3.org/2000/svg" xmlns:xlink="http://www.w3.org/1999/xlink" id="svg916" width="135" height="195" preserveAspectRatio="xMidYMid meet" version="1.0" viewBox="0 0 1350 1950"><style id="style835"/><metadata id="metadata922"/><defs id="defs920"><linearGradient id="linearGradient966"><stop style="stop-color:#fff;stop-opacity:1" id="stop962" offset="0"/><stop style="stop-color:#fff;stop-opacity:0" id="stop964" offset="1"/></linearGradient><mask id="mask1026" maskUnits="userSpaceOnUse"><path id="path1028" d="M 2714.9322,1779.9457 C 2285.7179,1528.279 1856.5041,1276.6113 1427.289,1024.9462 1067.9364,480.51092 837.97034,-132.87902 566.46979,-722.6623 -67.318554,-492.26761 -701.10689,-261.87301 -1334.8952,-31.478297 -1016.4767,664.08846 -734.25479,1377.9908 -358.95951,2045.8429 c 276.183916,479.3193 678.89503,948.3205 1238.55828,1082.9135 371.33653,97.6012 792.37223,17.4864 1071.18593,-256.0138 218.0828,-196.1475 344.8702,-465.5333 510.9751,-702.7997 84.3908,-129.9991 168.7816,-259.9982 253.1724,-389.9972 z" style="color:#000;font-style:normal;font-variant:normal;font-weight:400;font-stretch:normal;font-size:medium;line-height:normal;font-family:sans-serif;font-variant-ligatures:normal;font-variant-position:normal;font-variant-caps:normal;font-variant-numeric:normal;font-variant-alternates:normal;font-variant-east-asian:normal;font-feature-settings:normal;font-variation-settings:normal;text-indent:0;text-align:start;text-decoration:none;text-decoration-line:none;text-decoration-style:solid;text-decoration-color:#000;letter-spacing:normal;word-spacing:normal;text-transform:none;writing-mode:lr-tb;direction:ltr;text-orientation:mixed;dominant-baseline:auto;baseline-shift:baseline;text-anchor:start;white-space:normal;shape-padding:0;shape-margin:0;inline-size:0;clip-rule:nonzero;display:inline;overflow:visible;visibility:visible;opacity:1;isolation:auto;mix-blend-mode:normal;color-interpolation:sRGB;color-interpolation-filters:linearRGB;solid-color:#000;solid-opacity:1;vector-effect:none;fill:url(#linearGradient1030);fill-opacity:1;fill-rule:nonzero;stroke:none;stroke-width:2000;stroke-linecap:butt;stroke-linejoin:miter;stroke-miterlimit:4;stroke-dasharray:none;stroke-dashoffset:0;stroke-opacity:1;color-rendering:auto;image-rendering:auto;shape-rendering:auto;text-rendering:auto;enable-background:accumulate;stop-color:#000;stop-opacity:1"/></mask><linearGradient id="linearGradient1030" x1="10.127" x2="1237.223" y1="1220.749" y2="1220.749" gradientTransform="matrix(-0.2489405,1.0654933,-1.1485453,-0.2683447,2208.4137,1032.508)" gradientUnits="userSpaceOnUse" xlink:href="#linearGradient966"/></defs><path style="fill:#fff;stroke:none" id="path835" d="m 206,1915 c -26,-24 -27,-28 -19,-83 18,-126 4,-267 -44,-435 -17,-59 -24,-103 -20,-135 4,-44 -16,-147 -43,-216 -16,-43 -12,-121 10,-176 11,-28 20,-61 20,-74 0,-34 -28,-41 -57,-15 -18,18 -23,19 -23,7 0,-19 42,-48 69,-48 39,0 43,-33 11,-91 C 77,588 73,558 94,508 107,478 107,466 96,422 88,394 68,347 51,317 2,231 6,219 113,112 204,21 225,9 248,32 c 9,9 28,8 80,-2 46,-8 101,-10 168,-6 54,4 120,8 146,9 26,1 54,9 62,17 20,21 76,163 76,194 0,14 -5,46 -12,70 -11,40 -9,52 19,135 44,126 29,165 -39,101 -17,-17 -36,-29 -42,-27 -6,2 -12,26 -13,53 0,27 -4,67 -8,89 -5,33 -1,53 24,109 18,38 47,86 66,107 37,41 61,82 85,144 9,22 20,40 25,41 206,15 411,78 441,135 13,26 13,29 -6,39 -16,9 -43,4 -130,-25 -96,-31 -125,-36 -229,-38 l -119,-3 -43,59 c -52,71 -84,171 -99,312 -9,85 -8,114 7,193 l 17,92 -25,18 c -65,46 -90,51 -117,24 -17,-17 -17,-26 -3,-174 13,-148 13,-158 -5,-202 -21,-50 -28,-54 -63,-30 -27,19 -97,13 -135,-11 -22,-15 -28,-15 -62,0 -21,9 -41,21 -45,26 -6,11 1,49 20,104 5,17 19,92 31,169 23,154 20,166 -34,166 -18,0 -37,5 -42,10 -7,7 -19,2 -38,-15 z" mask="url(#mask1026)"/></svg>